<?xml version="1.0" standalone="no"?>
<!DOCTYPE svg PUBLIC "-//W3C//DTD SVG 20010904//EN"
 "http://www.w3.org/TR/2001/REC-SVG-20010904/DTD/svg10.dtd">
<svg version="1.0" xmlns="http://www.w3.org/2000/svg"
 width="468.000000pt" height="468.000000pt" viewBox="0 0 468.000000 468.000000"
 preserveAspectRatio="xMidYMid meet">
<metadata>
Created by potrace 1.11, written by Peter Selinger 2001-2013
</metadata>
<g transform="translate(0.000000,468.000000) scale(0.100000,-0.100000)"
fill="#000000" stroke="none">
<path d="M2458 3818 c12 -15 9 -16 -25 -15 -21 1 -41 7 -45 12 -5 6 -8 5 -8
-3 0 -9 -5 -10 -17 -4 -9 5 -29 6 -44 2 -17 -5 -31 -4 -38 3 -6 6 -11 7 -11 1
0 -15 -53 -16 -62 -2 -5 9 -8 7 -8 -7 0 -17 -2 -17 -10 -5 -5 8 -10 10 -10 3
0 -13 -18 -12 -39 1 -10 7 -12 6 -6 -4 6 -10 4 -12 -8 -7 -10 3 -17 3 -17 -2
0 -5 -11 -7 -25 -6 -14 2 -28 -1 -31 -6 -3 -6 -11 -5 -20 2 -12 9 -13 9 -9 -3
6 -16 -20 -19 -43 -5 -8 6 -10 3 -6 -8 5 -11 2 -14 -10 -9 -10 4 -16 1 -16 -7
0 -10 -3 -10 -12 -1 -9 9 -15 7 -25 -6 -9 -10 -12 -11 -7 -2 7 13 5 13 -9 2
-9 -8 -21 -11 -27 -7 -5 3 -10 1 -10 -5 0 -6 -4 -8 -10 -5 -5 3 -10 2 -10 -4
0 -5 -9 -8 -20 -6 -11 2 -18 1 -16 -4 3 -4 -4 -13 -16 -20 -11 -7 -17 -8 -13
-2 3 6 1 11 -5 11 -6 0 -13 -7 -16 -15 -5 -12 -9 -13 -21 -4 -8 7 -13 8 -11 3
2 -5 0 -9 -3 -9 -3 0 -13 -8 -23 -17 -20 -21 -41 -24 -30 -5 5 8 3 8 -9 -2 -9
-7 -14 -18 -10 -24 4 -6 0 -8 -11 -4 -10 4 -19 1 -22 -8 -4 -8 -10 -13 -14
-10 -5 3 -11 1 -15 -5 -4 -6 -11 -7 -17 -4 -7 5 -8 2 -3 -6 6 -10 4 -12 -8 -7
-11 4 -14 2 -10 -9 3 -8 2 -14 -3 -13 -18 3 -54 -14 -48 -22 3 -5 -2 -9 -10
-9 -9 0 -16 -4 -16 -10 0 -5 -7 -10 -15 -10 -8 0 -15 -5 -15 -11 0 -6 -7 -9
-14 -6 -10 4 -13 1 -9 -9 3 -9 0 -14 -8 -12 -8 2 -13 -2 -12 -9 2 -8 -4 -10
-14 -6 -10 4 -14 2 -10 -4 7 -11 -20 -28 -36 -24 -5 1 -6 -3 -2 -9 3 -5 1 -10
-4 -10 -6 0 -11 -7 -11 -15 0 -9 -6 -12 -17 -8 -10 4 -14 2 -9 -5 3 -6 -3 -13
-14 -17 -11 -3 -19 -9 -19 -13 3 -20 -3 -30 -27 -40 -14 -7 -23 -16 -20 -21 3
-5 -2 -15 -11 -22 -14 -12 -16 -12 -8 0 5 10 4 12 -4 7 -6 -4 -9 -12 -6 -17 4
-5 -1 -12 -9 -15 -9 -3 -14 -10 -11 -15 3 -4 -4 -13 -15 -19 -11 -6 -20 -17
-20 -25 0 -8 -9 -20 -19 -27 -11 -6 -17 -18 -13 -26 4 -11 1 -13 -8 -7 -10 6
-12 4 -7 -7 3 -10 -6 -26 -24 -43 -18 -15 -28 -33 -25 -41 3 -9 -1 -14 -12
-14 -15 0 -15 -2 -2 -10 12 -8 12 -10 -5 -10 -15 0 -17 -3 -7 -9 11 -6 10 -10
-4 -15 -9 -3 -14 -9 -11 -13 4 -3 -1 -12 -11 -20 -9 -8 -12 -12 -5 -9 7 4 9
-1 6 -14 -3 -11 -9 -20 -14 -20 -4 0 -13 -10 -20 -21 -6 -12 -7 -19 -1 -15 6
4 8 -2 5 -14 -3 -11 -10 -23 -16 -27 -6 -4 -7 -1 -2 7 6 9 4 11 -4 5 -9 -5
-10 -10 -2 -18 14 -14 14 -30 1 -22 -5 3 -10 1 -10 -4 0 -22 -2 -26 -17 -43
-10 -11 -12 -18 -5 -18 7 0 12 5 12 12 0 6 3 8 7 5 3 -4 -4 -19 -18 -34 -13
-14 -18 -23 -12 -19 7 4 13 2 13 -3 0 -6 -5 -11 -11 -11 -5 0 -7 -5 -3 -11 3
-6 0 -15 -7 -20 -12 -7 -12 -9 0 -9 11 0 11 -3 0 -16 -7 -9 -12 -29 -11 -46 2
-20 -1 -27 -9 -23 -8 6 -8 2 0 -13 8 -16 7 -21 -5 -26 -14 -5 -14 -9 -3 -22
10 -13 10 -17 0 -24 -11 -6 -11 -9 0 -13 10 -4 11 -6 1 -6 -8 -1 -10 -9 -6
-26 4 -17 2 -25 -7 -25 -9 0 -10 -3 -3 -8 13 -9 13 -52 -1 -52 -5 0 -4 -4 4
-9 9 -6 10 -10 2 -16 -9 -5 -9 -10 0 -21 9 -11 8 -18 -2 -31 -10 -11 -10 -14
-1 -9 6 4 12 3 12 -3 0 -5 -5 -13 -10 -16 -8 -5 -7 -11 1 -21 6 -8 9 -14 5
-14 -3 0 -1 -11 4 -25 7 -18 6 -25 -3 -25 -8 0 -8 -3 2 -9 11 -7 11 -9 0 -14
-9 -4 -10 -8 -4 -14 6 -4 11 -17 12 -28 2 -28 11 -63 19 -78 5 -7 0 -6 -12 3
-18 14 -18 14 -4 -4 8 -11 15 -30 15 -43 1 -13 7 -28 15 -33 13 -9 13 -10 0
-10 -13 0 -13 -1 0 -10 8 -5 11 -10 6 -10 -5 0 -2 -8 5 -17 8 -9 9 -14 3 -10
-6 3 -11 0 -11 -8 0 -8 5 -13 11 -12 6 1 11 -8 10 -20 0 -13 4 -23 9 -23 5 0
6 -7 3 -16 -3 -9 -2 -12 4 -9 7 4 9 -4 6 -20 -3 -15 -2 -25 1 -21 7 7 33 -40
33 -60 0 -8 5 -14 10 -14 6 0 10 -5 10 -11 0 -5 -6 -7 -12 -4 -7 4 -3 -2 10
-13 15 -14 18 -22 10 -25 -8 -3 -7 -6 4 -6 11 -1 16 -8 13 -21 -2 -11 0 -18 6
-15 5 4 9 -1 9 -9 0 -9 4 -16 8 -16 12 0 43 -70 37 -81 -3 -5 1 -6 10 -3 12 5
16 2 13 -12 -2 -10 2 -19 9 -19 7 0 18 -7 25 -15 11 -12 11 -12 -4 -2 -11 9
-18 10 -23 2 -4 -6 -3 -10 2 -9 4 1 16 -1 26 -6 14 -6 15 -10 6 -22 -7 -8 -8
-13 -3 -12 21 4 34 -2 34 -15 0 -8 7 -17 16 -20 11 -4 13 -12 8 -28 -6 -20 -5
-21 8 -10 13 10 18 9 29 -5 12 -16 12 -17 -1 -8 -9 6 -8 2 2 -7 10 -9 23 -18
29 -20 5 -2 11 -13 12 -26 1 -14 8 -22 20 -22 10 0 15 -4 12 -10 -3 -5 3 -10
15 -10 12 0 18 -4 15 -10 -3 -5 -1 -10 6 -10 6 0 9 -8 6 -20 -3 -14 -1 -18 6
-13 7 4 19 8 27 10 10 1 9 -3 -5 -14 -20 -15 -20 -15 2 -9 30 9 80 -39 62 -60
-6 -8 -8 -14 -4 -14 4 0 14 8 22 18 13 16 14 15 8 -5 -3 -12 -1 -24 4 -28 6
-3 8 0 5 8 -3 8 0 18 6 22 6 3 9 3 8 -2 -4 -15 13 -53 25 -53 8 0 8 3 -1 12
-7 7 -12 17 -12 22 0 6 5 4 10 -4 5 -8 13 -15 17 -15 4 0 17 -6 28 -13 19 -11
19 -13 -14 -42 -18 -16 -30 -30 -25 -30 5 0 2 -5 -6 -10 -13 -8 -13 -13 -2
-30 7 -11 10 -25 7 -30 -10 -16 -21 -12 -22 8 -2 29 -12 63 -22 76 -5 6 -9 16
-10 21 0 13 -31 19 -31 6 0 -6 8 -8 18 -4 9 3 14 3 10 -2 -4 -4 -3 -14 3 -21
24 -29 18 -67 -17 -102 -36 -36 -46 -54 -17 -31 15 12 16 12 10 -6 -7 -19 -7
-19 8 -1 8 10 13 22 11 25 -2 3 2 12 10 19 8 7 15 10 15 7 5 -20 3 -32 -8 -43
-16 -17 -16 -27 0 -44 7 -7 13 -15 13 -18 -1 -3 8 -18 19 -33 19 -26 21 -27
22 -7 1 11 -2 18 -8 15 -5 -4 -9 -2 -9 4 0 5 6 12 13 15 6 3 1 3 -13 -1 -22
-5 -23 -4 -11 10 19 24 50 5 46 -28 -3 -31 14 -44 29 -23 10 14 15 14 36 2 33
-17 40 -17 40 2 0 8 5 12 10 9 6 -4 8 -9 6 -13 -7 -12 448 -9 456 2 5 7 8 8 8
1 0 -6 10 -11 23 -13 17 -1 23 4 24 20 2 16 -1 18 -10 9 -6 -6 -15 -11 -21
-11 -5 0 -1 6 9 14 22 16 39 11 31 -10 -3 -7 -1 -16 4 -19 6 -4 10 -2 10 2 0
5 7 18 16 29 15 18 15 18 5 -3 -14 -29 -15 -28 15 -31 33 -3 45 5 38 23 -4 8
-11 12 -17 8 -6 -4 -7 -1 -2 7 6 10 11 9 21 -5 7 -10 11 -21 9 -25 -2 -3 14
-6 35 -6 21 0 36 4 34 8 -3 4 0 16 5 25 9 16 10 15 8 -7 -2 -25 -1 -25 75 -26
42 0 75 2 73 6 -2 3 1 12 6 20 8 12 9 11 7 -5 -3 -20 3 -20 229 -20 191 0 233
2 233 14 0 11 -3 11 -15 1 -9 -7 -18 -10 -22 -6 -3 3 0 6 8 6 11 0 11 2 -1 10
-22 15 -30 12 -23 -7 7 -17 6 -17 -11 0 -18 18 -41 24 -31 8 3 -5 1 -12 -4
-15 -5 -4 -13 -1 -17 5 -4 8 -9 7 -15 -2 -7 -12 -9 -12 -9 0 0 7 -6 11 -15 8
-8 -4 -17 -2 -20 4 -4 5 -11 6 -17 3 -7 -4 -6 -9 2 -14 8 -5 3 -7 -13 -7 -14
1 -23 5 -20 9 2 5 0 8 -6 8 -5 0 -11 -6 -14 -12 -2 -7 -4 1 -3 19 1 17 5 35 8
39 4 4 0 12 -9 19 -23 17 -8 38 18 24 15 -7 24 -7 35 2 29 24 13 -5 -18 -32
-31 -26 -32 -29 -17 -45 15 -15 19 -15 43 1 20 13 25 14 21 3 -4 -9 1 -14 15
-14 26 0 26 12 0 28 -11 7 -20 17 -20 22 0 4 8 2 17 -5 15 -12 16 -12 10 4 -4
10 -3 16 2 13 5 -3 11 1 15 9 6 18 2 19 -26 4 -15 -8 -19 -8 -13 0 4 7 1 20
-6 29 -11 13 -8 12 9 -2 22 -19 32 -10 11 11 -7 7 -3 10 15 8 14 -2 29 -6 35
-9 10 -6 29 19 29 39 1 17 22 17 28 1 3 -9 10 -16 15 -16 11 0 7 22 -6 33 -6
5 -3 7 7 3 11 -3 27 4 40 17 13 12 20 18 16 13 -18 -22 -6 -28 15 -8 13 12 27
19 32 15 4 -5 5 1 1 11 -5 16 -4 17 9 6 12 -10 15 -10 15 0 0 8 3 10 7 6 5 -4
-1 -14 -11 -22 -11 -8 -15 -14 -9 -14 7 0 15 5 19 11 3 6 16 8 28 5 29 -7 45
5 43 31 -1 16 -5 19 -13 12 -8 -6 -14 -7 -18 0 -9 14 4 19 42 16 17 -1 32 3
32 8 0 5 -7 7 -15 4 -8 -4 -17 -1 -21 6 -4 7 -4 9 1 5 4 -4 14 -1 22 7 8 8 23
15 34 15 11 0 18 4 15 8 -3 5 6 19 21 32 21 18 25 19 19 5 -5 -15 -4 -16 9 -5
8 7 12 17 8 23 -4 6 0 8 10 4 11 -4 14 -2 10 9 -4 10 0 12 13 7 11 -4 15 -3
11 4 -4 6 0 14 9 17 8 3 13 10 10 15 -3 5 1 12 10 15 8 3 12 2 9 -4 -3 -6 1
-7 9 -4 9 3 13 10 11 15 -8 12 34 51 47 43 7 -5 8 -3 3 6 -5 8 -2 18 9 26 10
7 16 14 15 16 -2 1 9 15 24 30 15 15 27 24 27 20 0 -4 5 1 11 11 5 9 7 22 4
27 -4 6 1 7 11 3 13 -5 16 -3 11 10 -4 10 -2 16 5 14 7 -1 12 5 13 13 0 8 9
14 18 13 10 0 16 1 13 4 -3 3 -1 15 5 26 9 15 8 18 -3 11 -11 -6 -11 -5 1 9 7
9 17 14 22 11 5 -3 6 2 3 10 -4 11 0 16 12 16 14 0 16 2 6 9 -11 7 -10 9 3 14
9 4 15 15 13 24 -2 10 2 17 9 16 6 -1 14 4 17 13 3 8 2 13 -3 10 -5 -4 -4 5 2
18 7 13 16 22 21 19 5 -4 7 1 3 10 -3 10 -2 17 3 17 6 0 9 6 8 13 -2 6 3 11
11 9 11 -2 12 0 2 11 -9 12 -8 16 6 21 15 6 15 8 3 16 -12 8 -12 10 3 16 9 3
17 10 17 16 0 5 -6 6 -12 2 -9 -5 -9 -3 1 9 7 9 16 15 20 13 4 -3 8 4 8 15 1
12 -2 17 -10 13 -7 -4 -2 4 11 18 15 17 20 28 13 33 -6 3 -11 11 -11 16 0 6 4
8 9 5 5 -3 11 1 15 9 3 8 1 15 -5 15 -5 0 -3 12 4 28 8 15 12 33 9 41 -3 9 0
11 9 6 11 -6 11 -5 2 5 -11 12 -7 44 6 36 3 -2 5 13 5 35 -1 23 3 39 10 39 6
0 4 5 -4 10 -13 9 -13 10 0 10 13 0 13 2 1 9 -12 8 -12 12 -2 25 8 9 10 16 6
16 -4 0 -2 6 4 14 8 10 9 16 1 21 -5 3 -10 11 -10 16 0 6 5 7 11 3 8 -4 8 0 0
15 -9 16 -9 21 1 21 10 0 10 2 -1 9 -11 7 -11 9 0 14 10 4 10 6 2 6 -7 1 -13
6 -13 12 0 5 5 7 11 3 8 -5 8 -1 0 14 -13 25 -14 35 -3 28 5 -3 9 1 9 9 0 8
-3 12 -7 10 -4 -2 -7 9 -6 25 1 17 6 30 11 30 6 0 3 5 -5 10 -17 10 -20 39 -6
58 5 8 4 12 -4 12 -7 0 -10 6 -7 14 3 7 0 19 -6 26 -9 10 -9 11 3 5 13 -8 13
-7 1 8 -11 14 -11 17 0 17 8 0 6 6 -7 16 -10 8 -14 13 -8 10 6 -3 11 1 11 9 0
8 -4 12 -8 9 -4 -2 -10 0 -14 6 -3 5 -1 10 6 10 8 0 8 4 2 13 -6 6 -9 23 -8
35 1 13 -4 26 -12 29 -7 3 -10 10 -7 15 4 6 0 14 -7 19 -10 6 -11 9 -1 9 6 0
12 5 12 11 0 5 -4 8 -9 5 -5 -3 -12 1 -15 10 -3 8 -2 12 4 9 15 -9 12 2 -5 19
-8 8 -16 26 -17 40 -1 14 -6 26 -11 26 -5 0 -7 9 -4 20 3 11 0 18 -7 17 -6 -1
-10 4 -9 11 2 6 -2 12 -8 12 -8 0 -8 4 0 14 9 11 7 18 -13 34 -14 10 -22 22
-19 26 3 3 1 6 -6 6 -7 0 -9 5 -6 10 3 6 0 10 -7 10 -10 0 -10 2 1 9 11 7 9
10 -8 16 -13 4 -20 9 -17 13 4 3 -4 17 -16 31 -13 14 -16 21 -8 16 9 -6 7 -2
-3 8 -11 9 -16 17 -13 17 4 0 -3 10 -16 23 -13 12 -17 18 -8 12 9 -5 0 6 -20
25 -20 19 -29 31 -20 25 9 -5 6 0 -6 11 -13 12 -20 25 -17 28 4 3 -2 6 -12 6
-10 0 -15 3 -12 6 3 4 -7 19 -23 34 -16 15 -26 30 -23 34 3 3 -1 6 -10 6 -9 0
-17 7 -17 16 0 10 -5 14 -16 10 -8 -3 -12 -2 -9 4 3 6 1 10 -4 10 -6 0 -11 7
-11 17 0 9 -3 13 -7 10 -3 -4 -12 1 -20 11 -9 10 -11 11 -7 2 7 -13 5 -13 -8
-2 -10 8 -14 20 -11 29 4 11 3 14 -6 9 -14 -9 -43 12 -35 25 3 5 -2 6 -10 3
-9 -3 -17 3 -21 17 -6 17 -9 19 -16 8 -6 -10 -9 -11 -9 -1 0 6 -7 12 -15 12
-8 0 -15 7 -15 15 0 8 -6 14 -12 13 -7 -2 -12 2 -11 8 1 6 -3 11 -10 11 -24 1
-40 9 -64 31 -13 13 -30 21 -38 18 -8 -3 -17 0 -21 6 -5 7 -2 8 6 3 9 -5 11
-4 6 3 -4 7 -17 12 -30 12 -12 0 -31 8 -42 18 -10 9 -26 17 -34 17 -8 0 -13 7
-12 15 2 8 1 12 -3 8 -4 -4 -18 -3 -32 3 -16 6 -22 5 -18 -1 3 -6 -1 -7 -9 -4
-9 3 -16 10 -16 14 0 4 -7 11 -16 14 -10 4 -13 2 -9 -7 4 -6 0 -4 -8 6 -11 13
-17 15 -22 7 -6 -9 -9 -9 -15 -1 -4 7 -17 13 -28 14 -12 1 -22 6 -22 12 0 5
-5 3 -10 -5 -5 -8 -10 -10 -10 -4 0 10 -6 12 -50 16 -11 1 -20 6 -20 11 0 5
-7 4 -15 -3 -10 -9 -15 -9 -15 -1 0 6 -12 11 -26 11 -17 0 -23 4 -18 13 6 9 5
9 -8 0 -8 -7 -18 -10 -22 -6 -12 12 -37 12 -29 0 4 -7 -5 -4 -20 6 -15 9 -27
15 -27 11 0 -4 -8 0 -17 7 -16 13 -17 12 -5 -3z m1262 -853 c7 -9 8 -15 2 -15
-5 0 -12 7 -16 15 -3 8 -4 15 -2 15 2 0 9 -7 16 -15z m-2132 -1977 c-2 -7 3
-13 10 -14 6 -1 15 -3 20 -4 4 -1 14 -3 22 -4 8 0 15 -8 15 -16 0 -9 8 -14 18
-12 10 2 17 -3 17 -13 0 -8 -5 -15 -11 -15 -5 0 -7 5 -4 10 8 13 -18 8 -27 -5
-5 -6 -12 -5 -20 3 -9 9 -8 12 8 12 15 0 16 2 4 10 -9 6 -17 5 -21 -2 -5 -7
-12 -3 -20 11 -8 11 -18 21 -23 21 -4 0 -3 -7 4 -15 11 -13 9 -15 -11 -13 -18
2 -24 -2 -22 -15 1 -13 -4 -17 -15 -13 -15 5 -15 4 -2 -6 21 -18 21 -46 0 -53
-18 -6 -45 -54 -35 -63 3 -3 5 0 5 8 0 10 4 10 18 -1 15 -13 16 -12 3 4 -11
14 -11 20 -1 32 15 18 35 20 23 3 -4 -7 -8 -22 -8 -33 0 -14 -6 -19 -17 -17
-10 2 -18 -3 -18 -10 0 -8 -6 -7 -17 5 -16 15 -16 18 2 37 10 11 15 20 10 20
-4 0 3 8 16 19 20 16 21 21 10 35 -15 18 -12 24 38 79 28 30 32 33 29 15z
m1562 -13 c6 3 10 2 10 -4 0 -26 -44 -22 -54 5 -4 12 -2 12 14 4 11 -6 25 -8
30 -5z m-1580 -47 c0 -9 3 -9 12 0 9 9 16 8 31 -6 24 -21 77 -25 84 -6 4 11 9
10 23 -6 12 -13 21 -17 25 -10 3 6 11 8 16 4 6 -4 6 -11 -2 -20 -11 -14 1 -20
15 -7 11 11 36 12 36 1 0 -6 -7 -8 -14 -5 -10 4 -13 1 -9 -9 3 -8 8 -13 11
-10 2 3 13 1 23 -4 12 -7 20 -7 24 0 3 5 -2 10 -12 11 -10 0 -13 3 -6 5 7 3
22 0 35 -7 13 -8 27 -12 31 -11 5 1 6 -2 2 -8 -3 -5 -2 -10 4 -10 5 0 12 6 14
13 4 9 6 9 6 0 2 -21 -20 -25 -39 -8 -16 15 -22 15 -35 5 -8 -7 -15 -17 -15
-22 0 -6 6 -6 14 1 17 15 59 -7 52 -26 -3 -7 3 -11 15 -10 21 1 25 13 7 20 -7
2 5 4 27 3 44 -1 97 -39 69 -50 -7 -3 -11 -12 -8 -20 6 -17 -12 -31 -21 -16
-9 15 -28 12 -19 -2 6 -10 4 -10 -7 0 -16 15 -33 16 -23 1 5 -8 1 -8 -14 0
-24 13 -35 14 -28 3 2 -4 -11 -8 -29 -8 -27 0 -32 3 -23 13 12 14 8 16 -16 7
-9 -3 -13 -11 -9 -18 4 -6 -1 -5 -10 3 -9 7 -17 9 -17 4 0 -5 -7 -10 -15 -10
-8 0 -12 4 -9 9 3 4 0 8 -5 8 -6 0 -11 -4 -11 -9 0 -16 -70 -4 -91 15 -10 9
-22 14 -26 11 -3 -4 -1 -7 5 -7 7 0 9 -7 5 -17 -6 -15 -7 -14 -13 3 -13 35 12
57 32 29 4 -6 8 -2 8 8 0 11 5 17 13 14 6 -2 11 -12 10 -22 -1 -12 2 -14 10
-6 14 14 -11 44 -30 37 -9 -4 -12 -1 -8 7 4 6 0 4 -8 -5 -8 -10 -17 -15 -20
-11 -4 3 1 12 11 20 10 9 11 11 2 7 -13 -7 -13 -6 0 12 14 18 14 18 -4 4 -18
-14 -18 -14 -6 7 12 19 15 20 25 6 7 -9 17 -13 23 -9 14 8 9 35 -9 47 -12 7
-12 9 1 9 11 0 11 3 -3 11 -14 8 -22 8 -30 -1 -9 -8 -8 -10 3 -5 11 4 16 -1
17 -16 2 -17 0 -19 -14 -8 -13 11 -18 10 -34 -10 -22 -27 -26 -14 -5 14 21 29
9 45 -28 41 -26 -4 -32 -1 -33 15 -1 10 2 19 8 19 5 0 9 -5 9 -12z m49 -37 c2
-1 -4 -10 -14 -21 -20 -22 -14 -53 9 -44 9 3 14 11 13 16 -1 6 5 13 13 15 13
4 13 3 0 -6 -8 -6 -11 -11 -6 -11 5 0 4 -6 -1 -12 -5 -7 -8 -23 -7 -35 0 -13
-2 -23 -6 -23 -5 0 -7 -11 -6 -24 2 -17 -1 -23 -10 -19 -17 6 -18 23 -2 23 8
0 7 4 -3 13 -8 6 -12 11 -10 10 2 -2 10 2 18 9 11 9 11 13 -2 27 -9 9 -22 25
-31 36 -13 18 -13 18 -4 -9 9 -26 9 -27 -5 -16 -10 8 -15 9 -15 1 0 -6 5 -11
10 -11 12 0 9 -22 -5 -32 -6 -4 -2 -8 9 -8 16 0 17 -2 5 -17 -10 -11 -10 -14
-1 -9 14 8 15 5 6 -18 -9 -24 -21 -19 -19 7 1 12 0 27 -4 32 -9 16 -10 65 0
70 4 3 6 15 4 27 -5 25 11 39 40 33 11 -2 22 -4 24 -4z m68 -46 c0 -8 -4 -15
-9 -15 -10 0 -11 14 -1 23 9 10 10 9 10 -8z m1098 -5 c3 -5 1 -10 -4 -10 -6 0
-11 5 -11 10 0 6 2 10 4 10 3 0 8 -4 11 -10z m-99 -40 c0 -12 -4 -16 -9 -11
-5 5 -6 14 -3 20 10 15 12 14 12 -9z m-1081 -11 c-3 -4 -12 -6 -20 -3 -8 4
-13 10 -10 15 3 4 12 6 20 3 8 -4 13 -10 10 -15z m434 -2 c0 -9 -2 -8 -6 1 -2
6 -10 9 -15 6 -7 -4 -8 -2 -4 5 9 13 26 5 25 -12z m674 8 c-3 -9 -8 -14 -10
-11 -3 3 -2 9 2 15 9 16 15 13 8 -4z m-111 -17 c-9 -9 -15 -9 -24 1 -11 10
-10 11 5 6 10 -5 17 -2 17 6 0 7 3 9 7 6 4 -4 1 -13 -5 -19z m205 3 c0 -11 -4
-18 -8 -15 -4 2 -9 -2 -12 -8 -2 -7 -8 -10 -11 -6 -4 3 1 15 11 26 23 26 22
26 20 3z m-746 -4 c-11 -14 -5 -27 11 -27 5 0 6 4 3 10 -4 6 1 7 11 3 15 -6
15 -7 0 -15 -11 -6 -22 -6 -31 2 -15 12 -10 40 7 40 7 0 6 -5 -1 -13z m55 -6
c1 -6 0 -7 -3 -1 -2 5 -9 8 -13 5 -5 -3 -11 -1 -14 4 -4 5 2 8 11 7 9 -2 18
-8 19 -15z m34 15 c0 -3 -4 -8 -10 -11 -5 -3 -10 -1 -10 4 0 6 5 11 10 11 6 0
10 -2 10 -4z m512 -7 c2 -2 1 -3 -1 -2 -2 2 -9 -4 -15 -12 -8 -11 -15 -12 -26
-4 -12 9 -12 10 4 5 13 -5 17 -2 13 8 -5 12 18 17 25 5z m59 -12 c-10 -9 -11
-8 -5 6 3 10 9 15 12 12 3 -3 0 -11 -7 -18z m-557 -2 c-4 -8 -11 -15 -16 -15
-6 0 -5 6 2 15 7 8 14 15 16 15 2 0 1 -7 -2 -15z m42 -12 c-4 -4 -12 -1 -19 7
-9 10 -9 11 1 6 7 -4 12 -2 13 6 0 11 2 11 6 0 3 -7 2 -16 -1 -19z m41 12 c0
-8 -4 -12 -9 -9 -5 3 -6 10 -3 15 9 13 12 11 12 -6z m306 0 c9 2 17 0 17 -5 0
-4 -13 -7 -28 -7 -16 1 -29 7 -29 14 0 8 5 9 11 4 6 -5 19 -7 29 -6z m-198 -5
c-3 -5 -12 -10 -18 -10 -7 0 -6 4 3 10 19 12 23 12 15 0z m115 0 c0 -5 -4 -10
-10 -10 -5 0 -10 5 -10 10 0 6 5 10 10 10 6 0 10 -4 10 -10z m230 0 c0 -5 -4
-10 -10 -10 -5 0 -10 5 -10 10 0 6 5 10 10 10 6 0 10 -4 10 -10z m-655 -21
c11 -16 1 -19 -13 -3 -7 8 -8 14 -3 14 5 0 13 -5 16 -11z m85 1 c0 -5 -4 -10
-10 -10 -5 0 -10 5 -10 10 0 6 5 10 10 10 6 0 10 -4 10 -10z m493 -8 c-4 -17
17 -15 23 3 4 8 11 15 17 15 6 0 2 -10 -10 -21 -20 -20 -50 -19 -38 2 4 5 -3
9 -14 9 -12 0 -20 -6 -18 -12 1 -7 -9 -14 -23 -15 l-25 -2 25 8 c14 5 21 9 17
10 -5 1 -5 6 -2 12 9 14 51 7 48 -9z m107 10 c0 -4 -9 -13 -20 -20 -19 -12
-20 -11 -8 8 13 20 28 27 28 12z m-390 -6 c0 -2 -7 -6 -15 -10 -8 -3 -15 -1
-15 4 0 6 7 10 15 10 8 0 15 -2 15 -4z m65 -25 c-6 -5 -25 10 -25 20 0 5 6 4
14 -3 8 -7 12 -15 11 -17z m45 19 c-8 -5 -19 -10 -25 -10 -5 0 -3 5 5 10 8 5
20 10 25 10 6 0 3 -5 -5 -10z m32 -12 c-7 -7 -12 -8 -12 -2 0 14 12 26 19 19
2 -3 -1 -11 -7 -17z m201 7 c-3 -9 -8 -14 -10 -11 -3 3 -2 9 2 15 9 16 15 13
8 -4z m-583 -5 c0 -5 -2 -10 -4 -10 -3 0 -8 5 -11 10 -3 6 -1 10 4 10 6 0 11
-4 11 -10z m155 -8 c-3 -3 -11 0 -18 7 -9 10 -8 11 6 5 10 -3 15 -9 12 -12z"/>
<path d="M1698 903 c-4 -7 -3 -30 2 -35 18 -23 -8 -66 -32 -53 -7 4 3 -6 22
-22 30 -26 33 -33 21 -47 -16 -19 -32 -12 -25 12 5 15 4 14 -6 -1 -7 -10 -9
-21 -6 -24 9 -9 66 -11 71 -2 3 4 19 6 36 4 30 -4 31 -3 13 16 -21 23 -28 24
-20 4 4 -12 2 -13 -13 -6 -10 6 -21 7 -25 4 -3 -3 -6 -1 -6 6 0 8 6 11 16 7
13 -5 14 -4 6 7 -7 8 -9 17 -5 20 3 4 2 7 -3 7 -6 0 -15 -5 -20 -10 -7 -7 -11
-6 -11 4 0 8 5 12 10 9 6 -4 7 -1 2 6 -6 10 -3 11 15 1 12 -6 24 -9 28 -6 3 3
1 6 -4 6 -6 0 -19 7 -30 16 -18 15 -18 15 3 4 19 -9 22 -8 17 5 -7 17 11 21
22 3 4 -7 3 -8 -4 -4 -7 4 -10 2 -6 -7 5 -14 34 -19 34 -6 0 4 -7 14 -15 22
-8 8 -11 18 -7 22 4 5 1 5 -5 1 -21 -12 -36 3 -21 22 10 14 10 15 -2 5 -11
-10 -17 -10 -31 3 -9 8 -19 12 -21 7z m47 -52 c-8 -8 -34 -10 -34 -3 1 4 0 9
-1 12 -1 3 -3 13 -5 24 -3 16 -1 15 21 -5 13 -12 22 -25 19 -28z m-34 -34 c-6
-8 -7 -18 -3 -22 4 -5 1 -5 -6 -1 -10 6 -10 11 -1 22 6 8 14 14 16 14 3 0 0
-6 -6 -13z m34 -76 c-9 -8 -36 -10 -30 -2 2 4 11 8 20 8 8 0 13 -3 10 -6z"/>
<path d="M1710 876 c0 -2 8 -10 18 -17 15 -13 16 -12 3 4 -13 16 -21 21 -21
13z"/>
<path d="M1803 830 c1 -16 -3 -24 -11 -22 -7 1 -15 -5 -18 -13 -3 -8 -11 -12
-17 -8 -6 4 -7 1 -3 -6 5 -7 10 -10 13 -7 3 3 17 -4 31 -14 19 -15 28 -17 38
-9 13 11 19 2 15 -23 0 -3 7 -5 17 -3 9 2 17 4 17 5 0 9 93 5 104 -4 12 -9 13
-8 9 5 -4 9 -2 21 4 27 6 6 2 15 -13 26 -29 20 -45 20 -53 0 -3 -8 -10 -12
-16 -9 -5 3 -10 2 -10 -4 0 -5 3 -11 8 -14 4 -2 2 -3 -4 -1 -6 1 -17 -2 -25
-6 -9 -6 -20 -3 -32 8 -15 13 -20 14 -26 3 -6 -8 -11 -9 -15 -3 -3 6 0 13 6
16 7 3 3 3 -9 1 -12 -3 -24 -1 -28 4 -4 7 1 8 11 4 12 -4 15 -3 10 6 -5 8 3 7
24 -4 31 -16 32 -16 25 4 -4 13 -2 21 5 21 6 0 8 -4 5 -10 -3 -5 2 -10 12 -10
16 0 16 1 1 17 -14 13 -20 14 -32 4 -16 -14 -32 2 -20 21 4 6 3 8 -4 4 -5 -3
-13 0 -16 6 -2 7 -4 2 -3 -12z m187 -72 c0 -5 -4 -8 -10 -8 -5 0 -10 5 -10 10
0 6 -5 10 -11 10 -5 0 -7 -4 -4 -10 3 -5 1 -10 -4 -10 -13 0 -13 3 -5 24 5 12
9 13 25 3 10 -6 19 -15 19 -19z"/>
<path d="M1867 774 c-11 -11 3 -24 18 -18 8 4 12 10 9 15 -6 11 -18 12 -27 3z"/>
<path d="M1570 880 c0 -16 17 -20 28 -7 8 10 6 13 -9 14 -10 1 -19 -2 -19 -7z"/>
<path d="M1059 3093 c-13 -16 -12 -17 4 -4 9 7 17 15 17 17 0 8 -8 3 -21 -13z"/>
<path d="M1036 1527 c3 -10 9 -15 12 -12 3 3 0 11 -7 18 -10 9 -11 8 -5 -6z"/>
<path d="M1295 1139 c-3 -4 2 -6 10 -5 21 3 28 13 10 13 -9 0 -18 -4 -20 -8z"/>
<path d="M1105 1120 c-3 -6 1 -7 9 -4 18 7 21 14 7 14 -6 0 -13 -4 -16 -10z"/>
<path d="M3415 1120 c3 -5 8 -10 11 -10 2 0 4 5 4 10 0 6 -5 10 -11 10 -5 0
-7 -4 -4 -10z"/>
<path d="M1390 1117 c0 -4 9 -16 20 -27 11 -11 20 -16 20 -12 0 5 -9 17 -20
27 -11 10 -20 15 -20 12z"/>
<path d="M3350 1101 c0 -6 4 -12 8 -15 5 -3 9 1 9 9 0 8 -4 15 -9 15 -4 0 -8
-4 -8 -9z"/>
<path d="M3510 1100 c0 -5 5 -10 11 -10 5 0 7 5 4 10 -3 6 -8 10 -11 10 -2 0
-4 -4 -4 -10z"/>
<path d="M1279 1098 c-5 -18 -6 -38 -1 -34 7 8 12 36 6 36 -2 0 -4 -1 -5 -2z"/>
<path d="M3439 1073 c-13 -16 -12 -17 4 -4 16 13 21 21 13 21 -2 0 -10 -8 -17
-17z"/>
<path d="M3255 1070 c-3 -5 -1 -10 4 -10 6 0 11 5 11 10 0 6 -2 10 -4 10 -3 0
-8 -4 -11 -10z"/>
<path d="M1345 1060 c-3 -6 1 -7 9 -4 18 7 21 14 7 14 -6 0 -13 -4 -16 -10z"/>
<path d="M3385 1060 c-3 -6 1 -7 9 -4 18 7 21 14 7 14 -6 0 -13 -4 -16 -10z"/>
<path d="M1311 1047 c-8 -10 -7 -14 2 -14 8 0 14 6 14 14 0 7 -1 13 -2 13 -2
0 -8 -6 -14 -13z"/>
<path d="M1230 1041 c0 -6 4 -13 10 -16 6 -3 7 1 4 9 -7 18 -14 21 -14 7z"/>
<path d="M1413 1035 c0 -7 6 -11 14 -8 7 3 13 6 13 8 0 2 -6 5 -13 8 -8 3 -14
-1 -14 -8z"/>
<path d="M3316 1035 c-9 -26 -7 -32 5 -12 6 10 9 21 6 23 -2 3 -7 -2 -11 -11z"/>
<path d="M3430 1046 c0 -2 7 -7 16 -10 8 -3 12 -2 9 4 -6 10 -25 14 -25 6z"/>
<path d="M3210 1034 c0 -2 9 -8 20 -14 11 -6 20 -7 20 -2 0 6 -9 12 -20 15
-11 3 -20 3 -20 1z"/>
<path d="M1190 1019 c0 -5 5 -7 10 -4 6 3 10 8 10 11 0 2 -4 4 -10 4 -5 0 -10
-5 -10 -11z"/>
<path d="M1462 1017 c10 -8 16 -16 13 -18 -2 -3 6 -6 18 -6 23 -2 15 6 -28 28
-18 9 -19 9 -3 -4z"/>
<path d="M3356 1022 c-2 -4 0 -14 6 -22 8 -12 9 -12 5 2 -3 9 -1 19 6 22 9 3
9 5 0 5 -6 1 -14 -3 -17 -7z"/>
<path d="M3490 1020 c0 -5 5 -10 11 -10 5 0 7 5 4 10 -3 6 -8 10 -11 10 -2 0
-4 -4 -4 -10z"/>
<path d="M1526 1003 c-3 -10 -9 -24 -12 -32 -4 -7 4 -3 16 9 14 14 19 25 12
32 -6 6 -12 3 -16 -9z"/>
<path d="M3259 1010 c-5 -29 -2 -33 21 -37 18 -2 21 -1 10 6 -8 5 -18 7 -23 4
-5 -3 -6 4 -2 16 3 11 4 21 1 21 -3 0 -7 -4 -7 -10z"/>
<path d="M3290 1005 c0 -8 4 -15 10 -15 5 0 7 7 4 15 -4 8 -8 15 -10 15 -2 0
-4 -7 -4 -15z"/>
<path d="M3419 1018 c-5 -18 -6 -38 -1 -34 7 8 12 36 6 36 -2 0 -4 -1 -5 -2z"/>
<path d="M1386 1002 c-2 -4 4 -8 14 -8 10 0 16 4 14 8 -3 4 -9 8 -14 8 -5 0
-11 -4 -14 -8z"/>
<path d="M3216 994 c-4 -9 -4 -19 -1 -22 2 -3 7 3 11 12 4 9 4 19 1 22 -2 3
-7 -3 -11 -12z"/>
<path d="M3308 968 c-10 -10 -14 -18 -9 -18 10 0 36 29 30 34 -2 1 -12 -6 -21
-16z"/>
<path d="M1386 961 c4 -17 3 -21 -6 -16 -9 6 -11 4 -5 -4 5 -9 11 -9 17 -3 7
7 6 16 -1 29 -11 16 -11 15 -5 -6z"/>
<path d="M1413 962 c1 -23 33 -49 45 -38 3 3 0 6 -7 6 -7 0 -9 4 -6 10 4 6 -1
7 -11 3 -10 -4 -15 -2 -11 3 3 6 2 16 -3 24 -7 11 -9 9 -7 -8z"/>
<path d="M1480 975 c0 -5 5 -17 10 -25 5 -8 10 -10 10 -5 0 6 -5 17 -10 25 -5
8 -10 11 -10 5z"/>
<path d="M3341 963 c-1 -13 -7 -22 -13 -20 -18 3 -22 -39 -4 -46 13 -5 46 30
46 50 0 4 -8 -4 -18 -20 -18 -27 -32 -27 -32 0 0 8 5 11 10 8 12 -7 24 19 17
37 -3 7 -6 3 -6 -9z"/>
<path d="M1279 968 c-4 -11 -4 -90 1 -93 3 -2 6 19 6 46 0 42 -3 57 -7 47z"/>
<path d="M1326 962 c-3 -5 1 -9 9 -9 8 0 15 4 15 9 0 4 -4 8 -9 8 -6 0 -12 -4
-15 -8z"/>
<path d="M3180 960 c0 -5 7 -10 15 -10 8 0 15 -5 15 -11 0 -6 -7 -9 -15 -5
-19 7 -45 -3 -45 -16 0 -7 5 -6 14 1 15 13 49 4 40 -10 -3 -5 -10 -7 -15 -4
-20 13 -30 -7 -15 -31 9 -13 16 -29 16 -36 0 -8 -5 -6 -11 5 -6 9 -15 14 -21
11 -8 -5 -9 -1 -5 10 4 11 3 15 -4 10 -7 -4 -9 0 -5 14 4 12 1 26 -9 36 -15
14 -18 14 -39 0 -21 -13 -24 -13 -30 2 -6 15 -9 14 -32 -7 -14 -13 -26 -23
-27 -21 -1 2 -10 0 -19 -3 -10 -4 -16 -11 -13 -15 10 -17 -18 -23 -30 -7 -12
17 -31 24 -21 8 7 -11 -19 -46 -36 -46 -7 -1 -16 4 -20 10 -5 6 -8 6 -8 -2 0
-7 9 -17 19 -23 24 -12 34 -13 26 -1 -3 5 -1 13 5 16 6 4 10 3 9 -2 -4 -23 3
-25 17 -4 12 16 19 20 27 12 15 -15 32 -14 19 2 -7 8 -6 18 5 32 13 17 15 17
9 2 -3 -10 -2 -16 2 -13 4 2 14 1 22 -4 9 -5 20 -4 29 3 12 9 13 9 7 0 -4 -8
-2 -13 4 -13 7 0 9 -7 6 -16 -3 -8 -2 -13 2 -10 5 3 9 -1 9 -9 0 -8 -5 -11
-10 -8 -6 4 -7 1 -2 -7 5 -8 4 -11 -3 -6 -18 11 -7 -23 16 -47 12 -13 22 -27
22 -31 0 -4 -10 3 -22 16 -16 16 -18 17 -8 3 14 -19 14 -19 -5 -3 -11 9 -27
18 -35 20 -8 2 -19 8 -23 13 -5 6 -6 1 -3 -10 6 -19 5 -19 -8 -2 -12 16 -14
16 -20 1 -8 -20 -8 -24 2 -23 19 3 32 -2 30 -13 -2 -9 15 -12 53 -13 46 0 56
3 51 15 -5 13 -3 13 12 1 19 -16 84 -22 92 -9 3 4 10 8 15 8 6 0 7 -5 4 -11
-4 -6 2 -5 14 2 24 16 6 33 -20 19 -12 -7 -21 -5 -30 6 -11 13 -10 15 2 14 30
-5 41 0 35 16 -4 10 -2 14 6 11 7 -2 12 -9 11 -15 -3 -15 25 -23 33 -10 4 7 3
8 -4 4 -7 -4 -12 -2 -12 3 0 12 23 15 33 4 4 -3 -1 -15 -10 -25 -15 -17 -15
-18 -1 -13 9 4 19 13 22 20 7 18 -20 39 -40 31 -10 -4 -14 -2 -11 6 2 7 12 12
21 12 9 -1 16 2 16 7 0 5 -6 9 -14 9 -9 0 -14 9 -13 20 1 11 6 18 12 16 5 -2
9 -9 8 -15 -2 -6 1 -11 7 -11 18 0 10 29 -10 35 -11 4 -18 11 -15 16 3 5 0 6
-8 3 -24 -9 -27 33 -5 61 24 30 19 32 -12 5 -27 -23 -42 -26 -34 -6 3 8 -3 19
-15 26 -14 7 -21 7 -21 0z m-124 -39 c-10 -16 21 -20 42 -5 19 13 22 13 30 -3
15 -31 3 -89 -13 -64 -3 6 0 11 7 11 9 0 9 3 -2 10 -12 8 -13 12 -2 19 11 7
11 9 -2 14 -9 4 -15 3 -15 -1 3 -20 -2 -32 -11 -27 -6 4 -8 10 -6 14 3 4 -1 8
-9 8 -20 0 -19 -2 8 -28 12 -12 16 -19 10 -15 -9 5 -11 2 -6 -10 4 -11 8 -13
11 -6 2 7 8 10 13 6 5 -3 5 -13 -2 -25 -10 -19 -9 -19 10 -9 12 6 21 13 21 16
0 3 -6 2 -12 -2 -8 -5 -7 -1 2 10 11 14 15 15 18 5 3 -8 10 -20 16 -28 8 -11
8 -13 -1 -8 -7 4 -21 -6 -34 -25 -13 -17 -17 -28 -9 -23 9 5 11 4 6 -3 -4 -8
-2 -10 7 -6 8 3 18 1 21 -5 4 -6 13 -8 20 -5 7 3 18 -1 24 -9 9 -11 8 -14 -3
-14 -8 0 -15 3 -15 7 0 4 -7 7 -15 7 -8 0 -15 -5 -15 -10 0 -6 -9 -2 -20 8
-11 10 -20 14 -20 10 0 -5 -11 2 -25 15 -22 21 -23 25 -11 39 19 21 19 26 1
62 -13 24 -19 28 -30 19 -10 -8 -17 -7 -29 5 -17 18 -22 30 -7 21 4 -3 16 3
26 14 19 21 30 27 21 11z m180 -23 c0 -12 -8 -23 -16 -25 -13 -4 -13 -3 0 6
17 12 1 15 -18 3 -9 -6 -6 -12 13 -20 14 -6 25 -17 25 -23 0 -8 -6 -7 -17 2
-17 13 -17 13 -3 -5 14 -18 13 -19 -5 -12 -11 4 -16 4 -12 0 8 -8 -32 -46 -43
-39 -3 2 -7 -3 -7 -11 0 -10 4 -11 11 -4 14 14 29 13 20 -2 -5 -9 -2 -9 9 1
12 9 17 10 17 2 0 -7 5 -9 12 -5 7 4 8 3 4 -5 -4 -6 -11 -9 -16 -6 -5 3 -18 2
-27 -4 -13 -6 -24 -5 -38 5 -10 8 -13 14 -7 14 7 0 11 5 10 12 -2 7 4 13 12
13 16 1 16 7 4 40 -7 20 -6 20 8 1 15 -19 16 -19 27 1 8 17 8 22 -5 27 -8 3
-13 10 -10 15 4 5 3 11 -1 14 -5 2 -3 3 2 1 6 -1 19 4 30 12 24 18 22 18 21
-8z m-292 -37 c3 -5 -1 -11 -9 -14 -9 -4 -12 -1 -8 9 6 16 10 17 17 5z m311 1
c11 -7 13 -57 4 -67 -4 -3 -22 -7 -40 -10 l-34 -4 23 19 c12 10 28 20 35 23 9
3 9 9 -1 26 -12 21 -6 27 13 13z m-215 -127 c4 3 12 -1 18 -8 8 -9 3 -13 -20
-14 -21 0 -26 2 -17 8 11 7 11 9 1 9 -8 0 -10 5 -6 12 6 9 9 9 12 0 2 -7 7
-10 12 -7z"/>
<path d="M3031 896 c-8 -10 -9 -16 -1 -21 5 -3 10 -5 11 -3 4 18 7 38 4 38 -1
0 -8 -6 -14 -14z"/>
<path d="M3126 805 c-10 -8 -22 -12 -26 -10 -4 3 -13 -1 -19 -9 -8 -10 -6 -17
12 -32 12 -10 19 -15 15 -10 -4 5 -3 15 3 23 6 7 8 13 4 13 -4 0 3 9 16 20 28
22 23 26 -5 5z m-22 -36 c-3 -5 -10 -7 -15 -3 -5 3 -7 10 -3 15 3 5 10 7 15 3
5 -3 7 -10 3 -15z"/>
<path d="M3230 955 c0 -8 2 -15 4 -15 2 0 6 7 10 15 3 8 1 15 -4 15 -6 0 -10
-7 -10 -15z"/>
<path d="M3430 961 c0 -5 8 -15 18 -22 15 -12 16 -12 5 2 -7 9 -10 19 -6 22 3
4 1 7 -5 7 -7 0 -12 -4 -12 -9z"/>
<path d="M3270 919 c-7 -11 -9 -23 -7 -26 3 -2 8 5 12 18 6 17 9 19 16 8 6 -9
9 -10 9 -2 0 22 -19 24 -30 2z"/>
<path d="M3393 933 c-17 -6 -17 -20 0 -26 8 -3 13 3 13 14 0 11 0 19 -1 18 0
0 -6 -3 -12 -6z"/>
<path d="M1351 911 c-9 -16 -8 -18 11 -13 12 3 19 1 15 -4 -3 -6 -1 -16 4 -24
7 -11 8 -9 6 9 -2 14 -9 27 -15 29 -7 2 -10 8 -6 13 3 5 3 9 0 9 -3 0 -10 -9
-15 -19z"/>
<path d="M1396 922 c-3 -4 4 -9 15 -9 23 -2 25 3 4 10 -8 4 -16 3 -19 -1z"/>
<path d="M1440 900 c-13 -8 -13 -11 -1 -22 8 -8 11 -8 7 -1 -3 6 0 13 6 16 7
2 11 7 8 10 -3 3 -12 2 -20 -3z"/>
<path d="M3356 893 c-6 -14 -5 -15 5 -6 7 7 10 15 7 18 -3 3 -9 -2 -12 -12z"/>
<path d="M3460 905 c0 -2 6 -8 13 -14 10 -8 14 -7 14 2 0 8 -6 14 -14 14 -7 0
-13 -1 -13 -2z"/>
<path d="M1400 894 c0 -6 7 -19 15 -30 8 -10 14 -14 14 -9 0 6 -6 19 -14 29
-8 11 -15 15 -15 10z"/>
<path d="M3280 895 c0 -2 12 -15 26 -28 23 -21 24 -26 13 -51 -15 -33 2 -60
24 -37 10 11 9 13 -5 8 -20 -7 -23 5 -7 34 7 15 7 24 -1 34 -6 7 -7 15 -3 17
4 3 2 3 -4 2 -7 -2 -13 1 -13 5 0 5 -7 11 -15 15 -8 3 -15 3 -15 1z"/>
<path d="M3380 880 c0 -5 5 -10 11 -10 5 0 7 5 4 10 -3 6 -8 10 -11 10 -2 0
-4 -4 -4 -10z"/>
<path d="M3410 877 c0 -5 7 -6 16 -3 9 4 24 1 33 -6 14 -11 14 -11 3 4 -14 17
-52 21 -52 5z"/>
<path d="M1175 859 c-3 -4 2 -6 10 -5 21 3 28 13 10 13 -9 0 -18 -4 -20 -8z"/>
<path d="M1306 861 c-4 -5 3 -7 14 -4 23 6 26 13 6 13 -8 0 -17 -4 -20 -9z"/>
<path d="M1355 860 c3 -5 8 -10 11 -10 2 0 4 5 4 10 0 6 -5 10 -11 10 -5 0 -7
-4 -4 -10z"/>
<path d="M3350 860 c0 -5 5 -10 10 -10 6 0 10 5 10 10 0 6 -4 10 -10 10 -5 0
-10 -4 -10 -10z"/>
<path d="M1255 851 c-3 -5 -2 -12 3 -15 5 -3 9 1 9 9 0 17 -3 19 -12 6z"/>
<path d="M2989 847 c7 -7 7 -16 1 -28 -12 -21 -4 -45 13 -46 7 0 21 -4 32 -8
18 -6 18 -5 2 5 -9 6 -15 15 -12 20 3 5 1 11 -5 15 -5 3 -10 1 -10 -5 0 -6 -5
-8 -11 -5 -14 9 21 34 39 27 11 -4 11 -6 0 -14 -10 -8 -10 -9 2 -5 8 2 15 10
16 18 1 23 -8 32 -17 18 -7 -12 -9 -11 -9 0 0 11 -4 9 -15 -5 -14 -19 -14 -19
-9 2 4 14 1 21 -11 21 -10 0 -12 -4 -6 -10z"/>
<path d="M1390 835 c0 -8 2 -15 4 -15 2 0 6 7 10 15 3 8 1 15 -4 15 -6 0 -10
-7 -10 -15z"/>
<path d="M3375 840 c-3 -5 -2 -10 4 -10 5 0 13 5 16 10 3 6 2 10 -4 10 -5 0
-13 -4 -16 -10z"/>
<path d="M3435 841 c-3 -5 -2 -12 3 -15 5 -3 9 1 9 9 0 17 -3 19 -12 6z"/>
<path d="M2947 834 c-7 -8 3 -37 17 -46 7 -5 6 -8 -3 -8 -8 0 -11 -6 -7 -16 5
-14 4 -15 -9 -4 -10 8 -15 9 -15 1 0 -6 -5 -11 -11 -11 -8 0 -8 5 1 15 16 20
1 19 -21 -1 -13 -12 -19 -12 -25 -3 -4 7 -3 10 3 6 6 -4 16 0 23 8 7 9 21 13
31 10 14 -5 17 -2 13 9 -7 17 -22 17 -42 -1 -7 -7 -19 -13 -25 -12 -9 0 -8 2
1 6 14 5 17 23 4 23 -5 0 -14 -11 -20 -25 -10 -21 -9 -27 3 -31 8 -4 13 -10
10 -14 -3 -5 -1 -12 5 -15 6 -4 9 -1 8 7 -2 8 9 13 34 13 44 0 47 3 52 43 3
30 -14 59 -27 46z"/>
<path d="M3355 821 c3 -5 0 -11 -7 -13 -7 -3 -5 -7 6 -11 9 -4 15 -3 11 2 -3
5 0 11 7 13 7 3 5 7 -6 11 -9 4 -15 3 -11 -2z"/>
<path d="M3396 821 c-3 -5 0 -14 8 -20 10 -9 15 -8 19 3 4 11 1 13 -10 9 -11
-4 -14 -2 -9 5 4 7 5 12 2 12 -3 0 -7 -4 -10 -9z"/>
<path d="M3460 826 c0 -2 8 -10 18 -17 15 -13 16 -12 3 4 -13 16 -21 21 -21
13z"/>
<path d="M1256 807 c3 -10 9 -15 12 -12 3 3 0 11 -7 18 -10 9 -11 8 -5 -6z"/>
<path d="M1289 803 c-13 -16 -12 -17 4 -4 16 13 21 21 13 21 -2 0 -10 -8 -17
-17z"/>
<path d="M2740 811 c0 -5 7 -11 15 -15 8 -3 15 -1 15 3 0 5 -7 11 -15 15 -8 3
-15 1 -15 -3z"/>
<path d="M1313 792 c-8 -14 -8 -19 1 -19 7 0 13 9 13 19 1 10 1 18 0 18 -1 0
-7 -8 -14 -18z"/>
<path d="M1380 800 c8 -5 22 -9 30 -9 10 0 8 3 -5 9 -27 12 -43 12 -25 0z"/>
<path d="M1352 781 c-11 -7 -10 -9 3 -14 11 -5 14 -3 9 5 -5 8 -2 9 10 5 10
-4 15 -3 11 3 -7 12 -16 12 -33 1z"/>
<path d="M1430 780 c0 -5 6 -10 13 -10 9 0 9 -2 0 -8 -9 -6 -7 -11 7 -20 12
-7 20 -8 20 -2 0 5 -4 10 -10 10 -5 0 -9 3 -9 8 3 18 -2 32 -11 32 -5 0 -10
-4 -10 -10z"/>
<path d="M3380 786 c0 -2 7 -7 16 -10 8 -3 12 -2 9 4 -6 10 -25 14 -25 6z"/>
<path d="M1269 763 c-13 -16 -12 -17 4 -4 9 7 17 15 17 17 0 8 -8 3 -21 -13z"/>
<path d="M3475 769 c-4 -6 -5 -12 -2 -15 2 -3 7 2 10 11 7 17 1 20 -8 4z"/>
<path d="M1395 760 c-8 -13 4 -32 15 -25 4 3 10 -2 14 -10 6 -17 26 -20 26 -4
0 5 -4 8 -9 5 -5 -3 -12 1 -15 10 -3 8 -10 12 -16 9 -5 -3 -10 -2 -10 4 0 5 6
12 13 14 9 4 9 6 0 6 -6 1 -15 -3 -18 -9z"/>
<path d="M3340 760 c-9 -6 -10 -10 -3 -10 6 0 15 5 18 10 8 12 4 12 -15 0z"/>
<path d="M3376 755 c4 -8 8 -15 10 -15 2 0 4 7 4 15 0 8 -4 15 -10 15 -5 0 -7
-7 -4 -15z"/>
<path d="M3357 743 c-4 -3 -7 -11 -7 -17 0 -6 5 -5 12 2 6 6 9 14 7 17 -3 3
-9 2 -12 -2z"/>
<path d="M3316 725 c-3 -8 -1 -15 4 -15 6 0 10 7 10 15 0 8 -2 15 -4 15 -2 0
-6 -7 -10 -15z"/>
<path d="M1339 713 c-13 -17 -13 -17 6 -3 11 8 22 16 24 17 2 2 0 3 -6 3 -6 0
-17 -8 -24 -17z"/>
<path d="M1472 721 c-11 -6 -10 -10 4 -15 9 -3 19 -4 22 -1 3 3 0 5 -7 5 -7 0
-9 5 -6 10 7 12 4 12 -13 1z"/>
<path d="M3407 719 c7 -7 15 -10 18 -7 3 3 -2 9 -12 12 -14 6 -15 5 -6 -5z"/>
</g>
</svg>
